<?xml version="1.0" encoding="utf-8"?>
<!-- Generator: Adobe Illustrator 16.0.0, SVG Export Plug-In . SVG Version: 6.00 Build 0)  -->
<!DOCTYPE svg PUBLIC "-//W3C//DTD SVG 1.1//EN" "http://www.w3.org/Graphics/SVG/1.1/DTD/svg11.dtd">
<svg version="1.1" id="Layer_1" xmlns="http://www.w3.org/2000/svg" xmlns:xlink="http://www.w3.org/1999/xlink" x="0px" y="0px"
	 width="200px" height="200px" viewBox="0 0 200 200" enable-background="new 0 0 200 200" xml:space="preserve">
<rect fill="#72BF44" width="200" height="200"/>
<g>
	<path fill="#FFFFFF" d="M27.031,74.032c1.843-19.588,18.705-32.359,15.704-2.506c-3.001,29.822,0.251,33.925,0.374,35.289
		c0.096,1.372,3.795,14.812,16.73,0c12.93-14.804,30.965-28.244,31.421-15.469c0.46,12.759,1.177,43.439,28.875,10.002
		c26.815-32.328,35.116-28,36.052-6.145c0.926,21.859-0.707,29.615-1.149,30.746c-0.47,1.141-25.884,13.677-17.569-18.217
		c4.393-15.493-8.972-1.326-15.714,4.311c-7.852,6.623-40.659,28.005-42.976,11.4c0.962-12.91,5.786-20.961-9.001-9.563
		c-14.778,11.389-38.81,25.745-41.592,6.153C25.408,100.459,26.749,76.183,27.031,74.032"/>
	<path fill="#FFFFFF" d="M180.364,123.191c0,3.619-2.96,6.521-6.618,6.521c-3.648,0-6.613-2.902-6.613-6.521
		c0-3.622,2.965-6.531,6.613-6.531C177.404,116.66,180.364,119.569,180.364,123.191"/>
</g>
</svg>
